<?xml version="1.0" encoding="UTF-8"?>
<!DOCTYPE svg PUBLIC "-//W3C//DTD SVG 1.1//EN" "http://www.w3.org/Graphics/SVG/1.1/DTD/svg11.dtd">
<!-- Creator: CorelDRAW -->
<?xml-stylesheet href="Dec.css" type="text/css"?>
<svg xmlns="http://www.w3.org/2000/svg" xml:space="preserve" width="30.008mm" height="24.3421mm" version="1.1" style="shape-rendering:geometricPrecision; text-rendering:geometricPrecision; image-rendering:optimizeQuality; fill-rule:evenodd; clip-rule:evenodd"
viewBox="0 0 45.57 36.96"
 xmlns:xlink="http://www.w3.org/1999/xlink"
 xmlns:xodm="http://www.corel.com/coreldraw/odm/2003">
 <g id="Layer_x0020_1">
  <metadata id="CorelCorpID_0Corel-Layer"/>
  <polyline class="fil0 str0" points="10.73,2.41 2.7,18.48 10.73,34.55 "/>
  <polyline class="fil0 str1" points="34.84,2.41 42.87,18.48 34.84,34.55 "/>
  <circle class="fil1 str2" cx="22.78" cy="10.45" r="3.21"/>
  <circle class="fil2 str3" cx="22.78" cy="26.52" r="3.21"/>
  <g>
   <path class="fil1" d="M19.57 10.45l-8.84 0 8.84 0zm0 0l0 0 0 0z"/>
   <path id="_1" class="fil3 str4" d="M19.57 10.45l-8.84 0m8.84 0l0 0 0 0z"/>
  </g>
  <g>
   <path class="fil4" d="M26 26.52l8.84 0 -8.84 0zm0 0l0 0 0 0z"/>
   <path id="_1_0" class="fil3 str5" d="M26 26.52l8.84 0m-8.84 0l0 0 0 0z"/>
  </g>
 </g>
</svg>
